<svg xmlns="http://www.w3.org/2000/svg" xmlns:xlink="http://www.w3.org/1999/xlink" width="320" zoomAndPan="magnify" viewBox="0 0 240 239.999995" height="320" preserveAspectRatio="xMidYMid meet" version="1.0"><path fill="#ffffff" d="M 184 216 L 56 216 C 54.953125 216 53.90625 215.945312 52.863281 215.84375 C 51.820312 215.738281 50.785156 215.585938 49.757812 215.378906 C 48.730469 215.175781 47.71875 214.917969 46.714844 214.613281 C 45.710938 214.308594 44.726562 213.957031 43.757812 213.554688 C 42.792969 213.152344 41.84375 212.707031 40.921875 212.210938 C 39.996094 211.71875 39.101562 211.179688 38.230469 210.597656 C 37.359375 210.015625 36.519531 209.390625 35.707031 208.726562 C 34.898438 208.0625 34.121094 207.359375 33.382812 206.617188 C 32.640625 205.878906 31.9375 205.101562 31.273438 204.292969 C 30.609375 203.480469 29.984375 202.640625 29.402344 201.769531 C 28.820312 200.898438 28.28125 200.003906 27.789062 199.078125 C 27.292969 198.15625 26.847656 197.207031 26.445312 196.242188 C 26.042969 195.273438 25.691406 194.289062 25.386719 193.285156 C 25.082031 192.28125 24.824219 191.269531 24.621094 190.242188 C 24.414062 189.214844 24.261719 188.179688 24.15625 187.136719 C 24.054688 186.09375 24 185.046875 24 184 L 24 56 C 24 54.953125 24.054688 53.90625 24.15625 52.863281 C 24.261719 51.820312 24.414062 50.785156 24.621094 49.757812 C 24.824219 48.730469 25.082031 47.71875 25.386719 46.714844 C 25.691406 45.710938 26.042969 44.726562 26.445312 43.757812 C 26.847656 42.792969 27.292969 41.84375 27.789062 40.921875 C 28.28125 39.996094 28.820312 39.101562 29.402344 38.230469 C 29.984375 37.359375 30.609375 36.519531 31.273438 35.707031 C 31.9375 34.898438 32.640625 34.121094 33.382812 33.382812 C 34.121094 32.640625 34.898438 31.9375 35.707031 31.273438 C 36.519531 30.609375 37.359375 29.984375 38.230469 29.402344 C 39.101562 28.820312 39.996094 28.28125 40.921875 27.789062 C 41.84375 27.292969 42.792969 26.847656 43.757812 26.445312 C 44.726562 26.042969 45.710938 25.691406 46.714844 25.386719 C 47.71875 25.082031 48.730469 24.824219 49.757812 24.621094 C 50.785156 24.414062 51.820312 24.261719 52.863281 24.15625 C 53.90625 24.054688 54.953125 24 56 24 L 184 24 C 185.046875 24 186.09375 24.054688 187.136719 24.15625 C 188.179688 24.261719 189.214844 24.414062 190.242188 24.621094 C 191.269531 24.824219 192.28125 25.082031 193.285156 25.386719 C 194.289062 25.691406 195.273438 26.042969 196.242188 26.445312 C 197.207031 26.847656 198.15625 27.292969 199.078125 27.789062 C 200.003906 28.28125 200.898438 28.820312 201.769531 29.402344 C 202.640625 29.984375 203.480469 30.609375 204.292969 31.273438 C 205.101562 31.9375 205.878906 32.640625 206.617188 33.382812 C 207.359375 34.121094 208.0625 34.898438 208.726562 35.707031 C 209.390625 36.519531 210.015625 37.359375 210.597656 38.230469 C 211.179688 39.101562 211.71875 39.996094 212.210938 40.921875 C 212.707031 41.84375 213.152344 42.792969 213.554688 43.757812 C 213.957031 44.726562 214.308594 45.710938 214.613281 46.714844 C 214.917969 47.71875 215.175781 48.730469 215.378906 49.757812 C 215.585938 50.785156 215.738281 51.820312 215.84375 52.863281 C 215.945312 53.90625 216 54.953125 216 56 L 216 184 C 216 185.046875 215.945312 186.09375 215.84375 187.136719 C 215.738281 188.179688 215.585938 189.214844 215.378906 190.242188 C 215.175781 191.269531 214.917969 192.28125 214.613281 193.285156 C 214.308594 194.289062 213.957031 195.273438 213.554688 196.242188 C 213.152344 197.207031 212.707031 198.15625 212.210938 199.078125 C 211.71875 200.003906 211.179688 200.898438 210.597656 201.769531 C 210.015625 202.640625 209.390625 203.480469 208.726562 204.292969 C 208.0625 205.101562 207.359375 205.878906 206.617188 206.617188 C 205.878906 207.359375 205.101562 208.0625 204.292969 208.726562 C 203.480469 209.390625 202.640625 210.015625 201.769531 210.597656 C 200.898438 211.179688 200.003906 211.71875 199.078125 212.210938 C 198.15625 212.707031 197.207031 213.152344 196.242188 213.554688 C 195.273438 213.957031 194.289062 214.308594 193.285156 214.613281 C 192.28125 214.917969 191.269531 215.175781 190.242188 215.378906 C 189.214844 215.585938 188.179688 215.738281 187.136719 215.84375 C 186.09375 215.945312 185.046875 216 184 216 Z M 56 45.332031 C 55.300781 45.332031 54.605469 45.402344 53.917969 45.539062 C 53.230469 45.675781 52.566406 45.878906 51.917969 46.144531 C 51.269531 46.414062 50.65625 46.742188 50.074219 47.132812 C 49.492188 47.519531 48.953125 47.960938 48.457031 48.457031 C 47.960938 48.953125 47.519531 49.492188 47.132812 50.074219 C 46.742188 50.65625 46.414062 51.269531 46.144531 51.917969 C 45.878906 52.566406 45.675781 53.230469 45.539062 53.917969 C 45.402344 54.605469 45.332031 55.300781 45.332031 56 L 45.332031 184 C 45.332031 184.699219 45.402344 185.394531 45.539062 186.082031 C 45.675781 186.769531 45.878906 187.433594 46.144531 188.082031 C 46.414062 188.730469 46.742188 189.34375 47.132812 189.925781 C 47.519531 190.507812 47.960938 191.046875 48.457031 191.542969 C 48.953125 192.039062 49.492188 192.480469 50.074219 192.867188 C 50.65625 193.257812 51.269531 193.585938 51.917969 193.855469 C 52.566406 194.121094 53.230469 194.324219 53.917969 194.460938 C 54.605469 194.597656 55.300781 194.667969 56 194.667969 L 184 194.667969 C 184.699219 194.667969 185.394531 194.597656 186.082031 194.460938 C 186.769531 194.324219 187.433594 194.121094 188.082031 193.855469 C 188.730469 193.585938 189.34375 193.257812 189.925781 192.867188 C 190.507812 192.480469 191.046875 192.039062 191.542969 191.542969 C 192.039062 191.046875 192.480469 190.507812 192.867188 189.925781 C 193.257812 189.34375 193.585938 188.730469 193.855469 188.082031 C 194.121094 187.433594 194.324219 186.769531 194.460938 186.082031 C 194.597656 185.394531 194.667969 184.699219 194.667969 184 L 194.667969 56 C 194.667969 55.300781 194.597656 54.605469 194.460938 53.917969 C 194.324219 53.230469 194.121094 52.566406 193.855469 51.917969 C 193.585938 51.269531 193.257812 50.65625 192.867188 50.074219 C 192.480469 49.492188 192.039062 48.953125 191.542969 48.457031 C 191.046875 47.960938 190.507812 47.519531 189.925781 47.132812 C 189.34375 46.742188 188.730469 46.414062 188.082031 46.144531 C 187.433594 45.878906 186.769531 45.675781 186.082031 45.539062 C 185.394531 45.402344 184.699219 45.332031 184 45.332031 Z M 56 45.332031 " fill-opacity="1" fill-rule="nonzero"/><path fill="#ffffff" d="M 77.332031 173.332031 C 76.632812 173.332031 75.9375 173.265625 75.253906 173.128906 C 74.566406 172.992188 73.898438 172.789062 73.25 172.519531 C 72.605469 172.253906 71.988281 171.925781 71.40625 171.535156 C 70.824219 171.148438 70.285156 170.703125 69.789062 170.210938 C 69.296875 169.714844 68.851562 169.175781 68.464844 168.59375 C 68.074219 168.011719 67.746094 167.394531 67.480469 166.75 C 67.210938 166.101562 67.007812 165.433594 66.871094 164.746094 C 66.734375 164.0625 66.667969 163.367188 66.667969 162.667969 L 66.667969 109.332031 C 66.667969 108.632812 66.734375 107.9375 66.871094 107.253906 C 67.007812 106.566406 67.210938 105.898438 67.480469 105.25 C 67.746094 104.605469 68.074219 103.988281 68.464844 103.40625 C 68.851562 102.824219 69.296875 102.285156 69.789062 101.789062 C 70.285156 101.296875 70.824219 100.851562 71.40625 100.464844 C 71.988281 100.074219 72.605469 99.746094 73.25 99.480469 C 73.898438 99.210938 74.566406 99.007812 75.253906 98.871094 C 75.9375 98.734375 76.632812 98.667969 77.332031 98.667969 C 78.035156 98.667969 78.726562 98.734375 79.414062 98.871094 C 80.101562 99.007812 80.769531 99.210938 81.414062 99.480469 C 82.0625 99.746094 82.675781 100.074219 83.257812 100.464844 C 83.839844 100.851562 84.378906 101.296875 84.875 101.789062 C 85.371094 102.285156 85.8125 102.824219 86.203125 103.40625 C 86.589844 103.988281 86.921875 104.605469 87.1875 105.25 C 87.457031 105.898438 87.660156 106.566406 87.796875 107.253906 C 87.933594 107.9375 88 108.632812 88 109.332031 L 88 162.667969 C 88 163.367188 87.933594 164.0625 87.796875 164.746094 C 87.660156 165.433594 87.457031 166.101562 87.1875 166.75 C 86.921875 167.394531 86.589844 168.011719 86.203125 168.59375 C 85.8125 169.175781 85.371094 169.714844 84.875 170.210938 C 84.378906 170.703125 83.839844 171.148438 83.257812 171.535156 C 82.675781 171.925781 82.0625 172.253906 81.414062 172.519531 C 80.769531 172.789062 80.101562 172.992188 79.414062 173.128906 C 78.726562 173.265625 78.035156 173.332031 77.332031 173.332031 Z M 77.332031 173.332031 " fill-opacity="1" fill-rule="nonzero"/><path fill="#ffffff" d="M 77.332031 88.105469 C 76.632812 88.109375 75.9375 88.042969 75.25 87.90625 C 74.5625 87.773438 73.890625 87.570312 73.242188 87.304688 C 72.59375 87.039062 71.976562 86.710938 71.394531 86.324219 C 70.808594 85.933594 70.269531 85.492188 69.769531 85 C 69.273438 84.503906 68.828125 83.96875 68.4375 83.386719 C 68.046875 82.804688 67.714844 82.1875 67.441406 81.542969 C 67.171875 80.894531 66.96875 80.226562 66.828125 79.539062 C 66.6875 78.851562 66.617188 78.160156 66.613281 77.457031 C 66.609375 76.757812 66.675781 76.0625 66.808594 75.371094 C 66.945312 74.683594 67.144531 74.015625 67.410156 73.367188 C 67.675781 72.71875 68 72.101562 68.386719 71.515625 C 68.773438 70.929688 69.214844 70.386719 69.707031 69.890625 C 70.203125 69.390625 70.738281 68.945312 71.320312 68.554688 C 71.902344 68.160156 72.515625 67.828125 73.160156 67.554688 C 73.808594 67.285156 74.476562 67.078125 75.160156 66.9375 C 75.847656 66.796875 76.542969 66.722656 77.246094 66.71875 C 77.945312 66.714844 78.640625 66.78125 79.328125 66.914062 C 80.019531 67.046875 80.6875 67.246094 81.335938 67.507812 C 81.988281 67.773438 82.605469 68.097656 83.191406 68.484375 C 83.777344 68.871094 84.320312 69.308594 84.816406 69.800781 C 85.316406 70.292969 85.761719 70.832031 86.15625 71.410156 C 86.550781 71.992188 86.882812 72.605469 87.15625 73.25 C 87.429688 73.898438 87.636719 74.5625 87.78125 75.25 C 87.921875 75.9375 87.996094 76.632812 88 77.332031 L 88 77.441406 C 88 78.140625 87.933594 78.835938 87.796875 79.519531 C 87.660156 80.207031 87.457031 80.875 87.1875 81.523438 C 86.921875 82.167969 86.589844 82.785156 86.203125 83.367188 C 85.8125 83.949219 85.371094 84.488281 84.875 84.984375 C 84.378906 85.476562 83.839844 85.917969 83.257812 86.308594 C 82.675781 86.699219 82.0625 87.027344 81.414062 87.292969 C 80.769531 87.5625 80.101562 87.765625 79.414062 87.902344 C 78.726562 88.039062 78.035156 88.105469 77.332031 88.105469 Z M 77.332031 88.105469 " fill-opacity="1" fill-rule="nonzero"/><path fill="#ffffff" d="M 120 173.332031 C 119.300781 173.332031 118.605469 173.265625 117.917969 173.128906 C 117.230469 172.992188 116.566406 172.789062 115.917969 172.519531 C 115.269531 172.253906 114.65625 171.925781 114.074219 171.535156 C 113.492188 171.148438 112.953125 170.703125 112.457031 170.210938 C 111.960938 169.714844 111.519531 169.175781 111.132812 168.59375 C 110.742188 168.011719 110.414062 167.394531 110.144531 166.75 C 109.878906 166.101562 109.675781 165.433594 109.539062 164.746094 C 109.402344 164.0625 109.332031 163.367188 109.332031 162.667969 L 109.332031 109.332031 C 109.332031 108.632812 109.402344 107.9375 109.539062 107.253906 C 109.675781 106.566406 109.878906 105.898438 110.144531 105.25 C 110.414062 104.605469 110.742188 103.988281 111.132812 103.40625 C 111.519531 102.824219 111.960938 102.285156 112.457031 101.789062 C 112.953125 101.296875 113.492188 100.851562 114.074219 100.464844 C 114.65625 100.074219 115.269531 99.746094 115.917969 99.480469 C 116.566406 99.210938 117.230469 99.007812 117.917969 98.871094 C 118.605469 98.734375 119.300781 98.667969 120 98.667969 C 120.699219 98.667969 121.394531 98.734375 122.082031 98.871094 C 122.769531 99.007812 123.433594 99.210938 124.082031 99.480469 C 124.730469 99.746094 125.34375 100.074219 125.925781 100.464844 C 126.507812 100.851562 127.046875 101.296875 127.542969 101.789062 C 128.039062 102.285156 128.480469 102.824219 128.867188 103.40625 C 129.257812 103.988281 129.585938 104.605469 129.855469 105.25 C 130.121094 105.898438 130.324219 106.566406 130.460938 107.253906 C 130.597656 107.9375 130.667969 108.632812 130.667969 109.332031 L 130.667969 162.667969 C 130.667969 163.367188 130.597656 164.0625 130.460938 164.746094 C 130.324219 165.433594 130.121094 166.101562 129.855469 166.75 C 129.585938 167.394531 129.257812 168.011719 128.867188 168.59375 C 128.480469 169.175781 128.039062 169.714844 127.542969 170.210938 C 127.046875 170.703125 126.507812 171.148438 125.925781 171.535156 C 125.34375 171.925781 124.730469 172.253906 124.082031 172.519531 C 123.433594 172.789062 122.769531 172.992188 122.082031 173.128906 C 121.394531 173.265625 120.699219 173.332031 120 173.332031 Z M 120 173.332031 " fill-opacity="1" fill-rule="nonzero"/><path fill="#ffffff" d="M 162.667969 173.332031 C 161.964844 173.332031 161.273438 173.265625 160.585938 173.128906 C 159.898438 172.992188 159.230469 172.789062 158.585938 172.519531 C 157.9375 172.253906 157.324219 171.925781 156.742188 171.535156 C 156.160156 171.148438 155.621094 170.703125 155.125 170.210938 C 154.628906 169.714844 154.1875 169.175781 153.796875 168.59375 C 153.410156 168.011719 153.078125 167.394531 152.8125 166.75 C 152.542969 166.101562 152.339844 165.433594 152.203125 164.746094 C 152.066406 164.0625 152 163.367188 152 162.667969 L 152 130.667969 C 152 129.964844 151.933594 129.273438 151.796875 128.585938 C 151.660156 127.898438 151.457031 127.230469 151.1875 126.585938 C 150.921875 125.9375 150.589844 125.324219 150.203125 124.742188 C 149.8125 124.160156 149.371094 123.621094 148.875 123.125 C 148.378906 122.628906 147.839844 122.1875 147.257812 121.796875 C 146.675781 121.410156 146.0625 121.078125 145.414062 120.8125 C 144.769531 120.542969 144.101562 120.339844 143.414062 120.203125 C 142.726562 120.066406 142.035156 120 141.332031 120 C 140.632812 120 139.9375 120.066406 139.253906 120.203125 C 138.566406 120.339844 137.898438 120.542969 137.25 120.8125 C 136.605469 121.078125 135.988281 121.410156 135.40625 121.796875 C 134.824219 122.1875 134.285156 122.628906 133.789062 123.125 C 133.296875 123.621094 132.851562 124.160156 132.464844 124.742188 C 132.074219 125.324219 131.746094 125.9375 131.480469 126.585938 C 131.210938 127.230469 131.007812 127.898438 130.871094 128.585938 C 130.734375 129.273438 130.667969 129.964844 130.667969 130.667969 C 130.667969 131.367188 130.597656 132.0625 130.460938 132.746094 C 130.324219 133.433594 130.121094 134.101562 129.855469 134.75 C 129.585938 135.394531 129.257812 136.011719 128.867188 136.59375 C 128.480469 137.175781 128.039062 137.714844 127.542969 138.210938 C 127.046875 138.703125 126.507812 139.148438 125.925781 139.535156 C 125.34375 139.925781 124.730469 140.253906 124.082031 140.519531 C 123.433594 140.789062 122.769531 140.992188 122.082031 141.128906 C 121.394531 141.265625 120.699219 141.332031 120 141.332031 C 119.300781 141.332031 118.605469 141.265625 117.917969 141.128906 C 117.230469 140.992188 116.566406 140.789062 115.917969 140.519531 C 115.269531 140.253906 114.65625 139.925781 114.074219 139.535156 C 113.492188 139.148438 112.953125 138.703125 112.457031 138.210938 C 111.960938 137.714844 111.519531 137.175781 111.132812 136.59375 C 110.742188 136.011719 110.414062 135.394531 110.144531 134.75 C 109.878906 134.101562 109.675781 133.433594 109.539062 132.746094 C 109.402344 132.0625 109.332031 131.367188 109.332031 130.667969 C 109.332031 129.617188 109.382812 128.574219 109.488281 127.53125 C 109.589844 126.488281 109.742188 125.453125 109.949219 124.421875 C 110.152344 123.394531 110.40625 122.378906 110.710938 121.378906 C 111.015625 120.375 111.367188 119.390625 111.769531 118.421875 C 112.171875 117.453125 112.617188 116.507812 113.113281 115.582031 C 113.605469 114.65625 114.144531 113.761719 114.726562 112.886719 C 115.308594 112.015625 115.933594 111.175781 116.597656 110.367188 C 117.261719 109.554688 117.964844 108.78125 118.707031 108.039062 C 119.445312 107.296875 120.222656 106.59375 121.03125 105.929688 C 121.84375 105.265625 122.683594 104.640625 123.554688 104.058594 C 124.425781 103.476562 125.324219 102.9375 126.25 102.445312 C 127.171875 101.949219 128.121094 101.503906 129.085938 101.101562 C 130.054688 100.703125 131.042969 100.347656 132.042969 100.042969 C 133.046875 99.742188 134.0625 99.484375 135.089844 99.28125 C 136.117188 99.078125 137.152344 98.921875 138.195312 98.820312 C 139.238281 98.71875 140.285156 98.667969 141.332031 98.667969 C 142.382812 98.667969 143.425781 98.71875 144.46875 98.820312 C 145.511719 98.921875 146.546875 99.078125 147.578125 99.28125 C 148.605469 99.484375 149.621094 99.742188 150.621094 100.042969 C 151.625 100.347656 152.609375 100.703125 153.578125 101.101562 C 154.546875 101.503906 155.492188 101.949219 156.417969 102.445312 C 157.34375 102.9375 158.238281 103.476562 159.113281 104.058594 C 159.984375 104.640625 160.824219 105.265625 161.632812 105.929688 C 162.445312 106.59375 163.21875 107.296875 163.960938 108.039062 C 164.703125 108.78125 165.40625 109.554688 166.070312 110.367188 C 166.734375 111.175781 167.359375 112.015625 167.941406 112.886719 C 168.523438 113.761719 169.0625 114.65625 169.554688 115.582031 C 170.046875 116.507812 170.496094 117.453125 170.898438 118.421875 C 171.296875 119.390625 171.652344 120.375 171.957031 121.378906 C 172.257812 122.378906 172.515625 123.394531 172.71875 124.421875 C 172.921875 125.453125 173.078125 126.488281 173.179688 127.53125 C 173.28125 128.574219 173.332031 129.617188 173.332031 130.667969 L 173.332031 162.667969 C 173.332031 163.367188 173.265625 164.0625 173.128906 164.746094 C 172.992188 165.433594 172.789062 166.101562 172.519531 166.75 C 172.253906 167.394531 171.925781 168.011719 171.535156 168.59375 C 171.148438 169.175781 170.703125 169.714844 170.210938 170.210938 C 169.714844 170.703125 169.175781 171.148438 168.59375 171.535156 C 168.011719 171.925781 167.394531 172.253906 166.75 172.519531 C 166.101562 172.789062 165.433594 172.992188 164.746094 173.128906 C 164.0625 173.265625 163.367188 173.332031 162.667969 173.332031 Z M 162.667969 173.332031 " fill-opacity="1" fill-rule="nonzero"/></svg>