<svg xmlns="http://www.w3.org/2000/svg" xmlns:xlink="http://www.w3.org/1999/xlink" width="320" zoomAndPan="magnify" viewBox="0 0 240 239.999995" height="320" preserveAspectRatio="xMidYMid meet" version="1.0"><path fill="#ffffff" d="M 79.730469 24 C 49.039062 24 24 49.039062 24 79.730469 L 24 160.328125 C 24 190.960938 49.039062 216 79.730469 216 L 160.328125 216 C 190.960938 216 216 190.960938 216 160.269531 L 216 79.730469 C 216 49.039062 190.960938 24 160.269531 24 Z M 79.730469 38.769531 L 160.269531 38.769531 C 183 38.769531 201.230469 57 201.230469 79.730469 L 201.230469 160.269531 C 201.230469 183 183 201.230469 160.328125 201.230469 L 79.730469 201.230469 C 57 201.230469 38.769531 183 38.769531 160.328125 L 38.769531 79.730469 C 38.769531 57 57 38.769531 79.730469 38.769531 Z M 179.078125 53.539062 C 174.980469 53.539062 171.691406 56.828125 171.691406 60.921875 C 171.691406 65.019531 174.980469 68.308594 179.078125 68.308594 C 183.171875 68.308594 186.460938 65.019531 186.460938 60.921875 C 186.460938 56.828125 183.171875 53.539062 179.078125 53.539062 Z M 120 68.308594 C 91.558594 68.308594 68.308594 91.558594 68.308594 120 C 68.308594 148.441406 91.558594 171.691406 120 171.691406 C 148.441406 171.691406 171.691406 148.441406 171.691406 120 C 171.691406 91.558594 148.441406 68.308594 120 68.308594 Z M 120 83.078125 C 140.480469 83.078125 156.921875 99.519531 156.921875 120 C 156.921875 140.480469 140.480469 156.921875 120 156.921875 C 99.519531 156.921875 83.078125 140.480469 83.078125 120 C 83.078125 99.519531 99.519531 83.078125 120 83.078125 Z M 120 83.078125 " fill-opacity="1" fill-rule="nonzero"/></svg>