<svg xmlns="http://www.w3.org/2000/svg" xmlns:xlink="http://www.w3.org/1999/xlink" width="320" zoomAndPan="magnify" viewBox="0 0 240 239.999995" height="320" preserveAspectRatio="xMidYMid meet" version="1.0"><defs><clipPath id="71801f55e5"><path d="M 60 24 L 180 24 L 180 216 L 60 216 Z M 60 24 " clip-rule="nonzero"/></clipPath></defs><g clip-path="url(#71801f55e5)"><path fill="#ffffff" d="M 179.503906 190.691406 C 178.816406 185.253906 177.789062 176.828125 177.789062 176.828125 C 176.949219 170.066406 173.035156 164.320312 167.304688 161.453125 L 140.402344 147.949219 C 137.140625 145.996094 135.167969 140.265625 134.363281 137.398438 C 139.542969 133.039062 142.597656 127.085938 144.3125 122.316406 C 149.375 121.253906 152.238281 117.445312 153.0625 110.734375 C 153.371094 108.144531 152.960938 106.324219 151.777344 105.175781 C 151.519531 104.917969 151.175781 104.660156 150.730469 104.453125 L 154.539062 85.410156 C 154.695312 84.621094 154.796875 83.832031 154.832031 83.023438 L 154.832031 83.007812 C 154.898438 81.71875 154.796875 80.433594 154.523438 79.164062 C 154.472656 78.890625 154.402344 78.613281 154.332031 78.339844 C 152.222656 70.34375 147.144531 60.941406 138.925781 55.949219 C 138.410156 54.882812 137.757812 53.90625 136.988281 53.046875 L 151.023438 46.476562 C 153.269531 45.414062 155.070312 43.816406 156.238281 41.828125 C 157.285156 40.007812 157.472656 38.464844 156.789062 37.230469 C 156.082031 35.960938 154.625 35.273438 152.429688 35.1875 C 147.554688 35.015625 139.492188 40.730469 133.8125 45.34375 C 135.320312 43.59375 137.210938 41.671875 139.390625 39.648438 C 141.226562 37.964844 142.546875 35.890625 143.214844 33.644531 C 143.867188 31.414062 143.710938 29.644531 142.75 28.410156 C 141.875 27.292969 140.503906 26.746094 138.632812 26.796875 C 132.972656 26.953125 127.273438 38.085938 124.222656 45.140625 C 125.886719 34.3125 125.9375 27.757812 124.375 25.648438 C 123.84375 24.945312 123.207031 24.667969 122.710938 24.582031 C 120.738281 24.035156 118.746094 24.035156 116.773438 24.582031 C 116.277344 24.667969 115.640625 24.945312 115.109375 25.648438 C 113.652344 27.601562 113.601562 33.386719 114.921875 42.855469 C 111.730469 35.90625 106.617188 26.933594 101.519531 26.796875 C 99.71875 26.746094 98.277344 27.277344 97.417969 28.410156 C 96.457031 29.644531 96.304688 31.414062 96.972656 33.660156 C 97.625 35.890625 98.945312 37.964844 100.78125 39.648438 C 102.945312 41.636719 104.796875 43.542969 106.308594 45.292969 C 100.664062 40.679688 92.71875 35.03125 87.742188 35.1875 C 85.546875 35.273438 84.089844 35.960938 83.382812 37.230469 C 82.699219 38.464844 82.886719 40.007812 83.933594 41.828125 C 85.101562 43.816406 86.902344 45.414062 89.148438 46.476562 L 103.183594 53.03125 C 102.429688 53.90625 101.777344 54.867188 101.261719 55.929688 C 101.246094 55.929688 101.246094 55.929688 101.246094 55.929688 C 93.027344 60.941406 87.949219 70.363281 85.839844 78.339844 C 85.769531 78.613281 85.699219 78.890625 85.648438 79.164062 C 85.375 80.433594 85.273438 81.71875 85.339844 83.007812 C 85.375 83.8125 85.476562 84.621094 85.632812 85.410156 L 89.441406 104.453125 C 88.996094 104.660156 88.652344 104.917969 88.394531 105.175781 C 87.210938 106.324219 86.800781 108.144531 87.109375 110.734375 C 87.929688 117.445312 90.796875 121.253906 95.859375 122.316406 C 97.558594 127.070312 100.609375 133.023438 105.808594 137.398438 C 105.003906 140.246094 103.03125 145.996094 99.769531 147.949219 L 72.867188 161.453125 C 67.136719 164.320312 63.222656 170.066406 62.382812 176.828125 C 62.382812 176.828125 61.351562 185.253906 60.667969 190.691406 C 60.253906 194.140625 61.902344 197.539062 64.886719 199.375 C 82.972656 210.390625 101.539062 216.015625 120.085938 216.085938 C 138.632812 216.015625 157.199219 210.390625 175.285156 199.375 C 178.269531 197.539062 179.917969 194.140625 179.503906 190.691406 Z M 120.085938 49.941406 C 123.84375 49.941406 128.167969 50.886719 131.480469 52.929688 C 127.960938 52.105469 124.152344 51.96875 120.085938 52.484375 C 115.984375 51.949219 112.125 52.105469 108.574219 52.964844 C 111.851562 50.902344 116.191406 49.941406 120.085938 49.941406 Z M 98.757812 120.257812 C 98.535156 119.589844 97.953125 119.140625 97.28125 119.089844 C 94.398438 118.695312 91.378906 117.304688 90.523438 110.324219 C 90.265625 108.265625 90.710938 107.714844 90.796875 107.628906 C 90.933594 107.492188 91.175781 107.472656 91.414062 107.472656 C 91.429688 107.472656 91.449219 107.472656 91.449219 107.472656 C 91.621094 107.472656 91.757812 107.492188 91.859375 107.492188 C 92.855469 107.628906 94.210938 108.179688 95.703125 109.054688 C 96.253906 109.363281 96.921875 109.363281 97.453125 109.035156 C 97.984375 108.726562 98.296875 108.144531 98.277344 107.507812 L 97.832031 92.238281 C 97.695312 88 98.945312 83.917969 101.332031 80.726562 C 105.65625 74.960938 111.660156 74.480469 119.160156 79.285156 C 119.726562 79.644531 120.445312 79.644531 121.011719 79.285156 C 128.511719 74.480469 134.515625 74.976562 138.839844 80.726562 C 141.226562 83.917969 142.476562 88 142.339844 92.238281 L 141.875 107.527344 C 141.859375 108.144531 142.1875 108.726562 142.71875 109.054688 C 143.25 109.363281 143.917969 109.363281 144.449219 109.054688 C 145.960938 108.179688 147.332031 107.628906 148.328125 107.492188 C 148.429688 107.492188 148.570312 107.472656 148.722656 107.472656 C 148.722656 107.472656 148.738281 107.472656 148.757812 107.472656 C 148.996094 107.472656 149.238281 107.492188 149.375 107.628906 C 149.460938 107.714844 149.90625 108.265625 149.648438 110.324219 C 148.808594 117.289062 145.789062 118.679688 142.921875 119.089844 C 142.238281 119.125 141.636719 119.570312 141.414062 120.238281 C 139.730469 125.199219 136.472656 131.976562 130.414062 136.113281 C 127.378906 138.1875 123.910156 139.40625 120.085938 139.730469 C 116.257812 139.40625 112.777344 138.1875 109.722656 136.09375 C 103.664062 131.941406 100.421875 125.183594 98.757812 120.257812 Z M 108.761719 139.542969 C 112.105469 141.636719 115.863281 142.835938 119.949219 143.164062 L 120.222656 143.164062 C 124.308594 142.835938 128.0625 141.621094 131.410156 139.542969 C 132.542969 143.199219 134.53125 147.847656 137.777344 150.320312 C 137.296875 161.574219 129.523438 170.597656 120.085938 170.597656 C 110.648438 170.597656 102.875 161.574219 102.394531 150.320312 C 105.636719 147.847656 107.628906 143.199219 108.761719 139.542969 Z M 108.761719 139.542969 " fill-opacity="1" fill-rule="nonzero"/></g></svg>